
<global>
amp_veltrack=0
ampeg_release=0.35
</global>

<group>
group_label=PP
xf_cccurve=gain
xfin_hicc1=42
xfout_hicc1=85
xfout_locc1=42

<region>
hikey=g#4
hivel=127
lokey=g4
loop_end=205308
loop_mode=loop_continuous
loop_start=62195
loop_xfade=35778
lovel=1
pitch_keycenter=g#4
sample=3Trombones_muted_sustain_PP_G#4.opus
</region>

<region>
hikey=g#3
hivel=127
lokey=g3
loop_end=207586
loop_mode=loop_continuous
loop_start=62885
loop_xfade=36175
lovel=1
pitch_keycenter=g#3
sample=3Trombones_muted_sustain_PP_G#3.opus
</region>

<region>
hikey=g#2
hivel=127
lokey=g2
loop_end=217445
loop_mode=loop_continuous
loop_start=65871
loop_xfade=37893
lovel=1
pitch_keycenter=g#2
sample=3Trombones_muted_sustain_PP_G#2.opus
</region>

<region>
hikey=f#4
hivel=127
lokey=f4
loop_end=205419
loop_mode=loop_continuous
loop_start=62228
loop_xfade=35797
lovel=1
pitch_keycenter=f#4
sample=3Trombones_muted_sustain_PP_F#4.opus
</region>

<region>
hikey=f#3
hivel=127
lokey=f3
loop_end=209059
loop_mode=loop_continuous
loop_start=63331
loop_xfade=36432
lovel=1
pitch_keycenter=f#3
sample=3Trombones_muted_sustain_PP_F#3.opus
</region>

<region>
hikey=f#2
hivel=127
lokey=f2
loop_end=218666
loop_mode=loop_continuous
loop_start=66241
loop_xfade=38106
lovel=1
pitch_keycenter=f#2
sample=3Trombones_muted_sustain_PP_F#2.opus
</region>

<region>
hikey=e4
hivel=127
lokey=d#4
loop_end=206148
loop_mode=loop_continuous
loop_start=62449
loop_xfade=35924
lovel=1
pitch_keycenter=e4
sample=3Trombones_muted_sustain_PP_E4.opus
</region>

<region>
hikey=e3
hivel=127
lokey=d#3
loop_end=208255
loop_mode=loop_continuous
loop_start=63087
loop_xfade=36292
lovel=1
pitch_keycenter=e3
sample=3Trombones_muted_sustain_PP_E3.opus
</region>

<region>
hivel=127
key=e2
loop_end=215862
loop_mode=loop_continuous
loop_start=65392
loop_xfade=37617
lovel=1
sample=3Trombones_muted_sustain_PP_E2.opus
</region>

<region>
hikey=d4
hivel=127
lokey=c#4
loop_end=213450
loop_mode=loop_continuous
loop_start=64661
loop_xfade=37197
lovel=1
pitch_keycenter=d4
sample=3Trombones_muted_sustain_PP_D4.opus
</region>

<region>
hikey=d3
hivel=127
lokey=c#3
loop_end=218666
loop_mode=loop_continuous
loop_start=66241
loop_xfade=38106
lovel=1
pitch_keycenter=d3
sample=3Trombones_muted_sustain_PP_D3.opus
</region>

<region>
hikey=c4
hivel=127
lokey=b3
loop_end=205803
loop_mode=loop_continuous
loop_start=62345
loop_xfade=35864
lovel=1
pitch_keycenter=c4
sample=3Trombones_muted_sustain_PP_C4.opus
</region>

<region>
hikey=c3
hivel=127
lokey=b2
loop_end=208612
loop_mode=loop_continuous
loop_start=63196
loop_xfade=36354
lovel=1
pitch_keycenter=c3
sample=3Trombones_muted_sustain_PP_C3.opus
</region>

<region>
hikey=a#4
hivel=127
lokey=a4
loop_end=206596
loop_mode=loop_continuous
loop_start=62585
loop_xfade=36002
lovel=1
pitch_keycenter=A#4
sample=3Trombones_muted_sustain_PP_A#4.opus
</region>

<region>
hikey=a#3
hivel=127
lokey=a3
loop_end=206551
loop_mode=loop_continuous
loop_start=62571
loop_xfade=35995
lovel=1
pitch_keycenter=a#3
sample=3Trombones_muted_sustain_PP_A#3.opus
</region>

<region>
hikey=a#2
hivel=127
lokey=a2
loop_end=212152
loop_mode=loop_continuous
loop_start=64268
loop_xfade=36971
lovel=1
pitch_keycenter=a#2
sample=3Trombones_muted_sustain_PP_A#2.opus
</region>
</group>

<group>
group_label=MF
xf_cccurve=gain
xfin_hicc1=85
xfin_locc1=42
xfout_hicc1=127
xfout_locc1=85

<region>
hikey=g#4
hivel=127
lokey=g4
loop_end=204539
loop_mode=loop_continuous
loop_start=61962
loop_xfade=35644
lovel=1
pitch_keycenter=g#4
sample=3Trombones_muted_sustain_MF_G#4.opus
</region>

<region>
hikey=g#3
hivel=127
lokey=g3
loop_end=206254
loop_mode=loop_continuous
loop_start=62481
loop_xfade=35943
lovel=1
pitch_keycenter=g#3
sample=3Trombones_muted_sustain_MF_G#3.opus
</region>

<region>
hikey=g#2
hivel=127
lokey=g2
loop_end=207887
loop_mode=loop_continuous
loop_start=62976
loop_xfade=36227
lovel=1
pitch_keycenter=g#2
sample=3Trombones_muted_sustain_MF_G#2.opus
</region>

<region>
hikey=f#4
hivel=127
lokey=f4
loop_end=205569
loop_mode=loop_continuous
loop_start=62274
loop_xfade=35823
lovel=1
pitch_keycenter=f#4
sample=3Trombones_muted_sustain_MF_F#4.opus
</region>

<region>
hikey=f#3
hivel=127
lokey=f3
loop_end=207938
loop_mode=loop_continuous
loop_start=62991
loop_xfade=36236
lovel=1
pitch_keycenter=f#3
sample=3Trombones_muted_sustain_MF_F#3.opus
</region>

<region>
hikey=f#2
hivel=127
lokey=f2
loop_end=205732
loop_mode=loop_continuous
loop_start=62323
loop_xfade=35852
lovel=1
pitch_keycenter=f#2
sample=3Trombones_muted_sustain_MF_F#2.opus
</region>

<region>
hikey=e4
hivel=127
lokey=d#4
loop_end=205810
loop_mode=loop_continuous
loop_start=62347
loop_xfade=35865
lovel=1
pitch_keycenter=e4
sample=3Trombones_muted_sustain_MF_E4.opus
</region>

<region>
hikey=e3
hivel=127
lokey=d#3
loop_end=207803
loop_mode=loop_continuous
loop_start=62950
loop_xfade=36213
lovel=1
pitch_keycenter=e3
sample=3Trombones_muted_sustain_MF_E3.opus
</region>

<region>
hivel=127
key=e2
loop_end=207420
loop_mode=loop_continuous
loop_start=62835
loop_xfade=36146
lovel=1
sample=3Trombones_muted_sustain_MF_E2.opus
</region>

<region>
hikey=d4
hivel=127
lokey=c#4
loop_end=206260
loop_mode=loop_continuous
loop_start=62483
loop_xfade=35944
lovel=1
pitch_keycenter=d4
sample=3Trombones_muted_sustain_MF_D4.opus
</region>

<region>
hikey=d3
hivel=127
lokey=c#3
loop_end=208639
loop_mode=loop_continuous
loop_start=63204
loop_xfade=36358
lovel=1
pitch_keycenter=d3
sample=3Trombones_muted_sustain_MF_D3.opus
</region>

<region>
hikey=c4
hivel=127
lokey=b3
loop_end=206899
loop_mode=loop_continuous
loop_start=62677
loop_xfade=36055
lovel=1
pitch_keycenter=c4
sample=3Trombones_muted_sustain_MF_C4.opus
</region>

<region>
hikey=c3
hivel=127
lokey=b2
loop_end=207707
loop_mode=loop_continuous
loop_start=62921
loop_xfade=36196
lovel=1
pitch_keycenter=c3
sample=3Trombones_muted_sustain_MF_C3.opus
</region>

<region>
hikey=a#4
hivel=127
lokey=a4
loop_end=205389
loop_mode=loop_continuous
loop_start=62219
loop_xfade=35792
lovel=1
pitch_keycenter=A#4
sample=3Trombones_muted_sustain_MF_A#4.opus
</region>

<region>
hikey=a#3
hivel=127
lokey=a3
loop_end=207616
loop_mode=loop_continuous
loop_start=62894
loop_xfade=36180
lovel=1
pitch_keycenter=a#3
sample=3Trombones_muted_sustain_MF_A#3.opus
</region>

<region>
hikey=a#2
hivel=127
lokey=a2
loop_end=206900
loop_mode=loop_continuous
loop_start=62677
loop_xfade=36055
lovel=1
pitch_keycenter=a#2
sample=3Trombones_muted_sustain_MF_A#2.opus
</region>
</group>

<group>
group_label=FF
xf_cccurve=gain
xfin_hicc1=127
xfin_locc1=85
xfout_hicc1=127
xfout_locc1=127

<region>
hikey=g#4
hivel=127
lokey=g4
loop_end=208050
loop_mode=loop_continuous
loop_start=63026
loop_xfade=36256
lovel=1
pitch_keycenter=g#4
sample=3Trombones_muted_sustain_FF_G#4.opus
</region>

<region>
hikey=g#3
hivel=127
lokey=g3
loop_end=209931
loop_mode=loop_continuous
loop_start=63595
loop_xfade=36584
lovel=1
pitch_keycenter=g#3
sample=3Trombones_muted_sustain_FF_G#3.opus
</region>

<region>
hikey=g#2
hivel=127
lokey=g2
loop_end=208279
loop_mode=loop_continuous
loop_start=63095
loop_xfade=36296
lovel=1
pitch_keycenter=g#2
sample=3Trombones_muted_sustain_FF_G#2.opus
</region>

<region>
hikey=f#4
hivel=127
lokey=f4
loop_end=208189
loop_mode=loop_continuous
loop_start=63067
loop_xfade=36280
lovel=1
pitch_keycenter=f#4
sample=3Trombones_muted_sustain_FF_F#4.opus
</region>

<region>
hikey=f#3
hivel=127
lokey=f3
loop_end=208802
loop_mode=loop_continuous
loop_start=63253
loop_xfade=36387
lovel=1
pitch_keycenter=f#3
sample=3Trombones_muted_sustain_FF_F#3.opus
</region>

<region>
hikey=f#2
hivel=127
lokey=f2
loop_end=208139
loop_mode=loop_continuous
loop_start=63052
loop_xfade=36271
lovel=1
pitch_keycenter=f#2
sample=3Trombones_muted_sustain_FF_F#2.opus
</region>

<region>
hikey=e4
hivel=127
lokey=d#4
loop_end=208176
loop_mode=loop_continuous
loop_start=63064
loop_xfade=36278
lovel=1
pitch_keycenter=e4
sample=3Trombones_muted_sustain_FF_E4.opus
</region>

<region>
hikey=e3
hivel=127
lokey=d#3
loop_end=209361
loop_mode=loop_continuous
loop_start=63423
loop_xfade=36484
lovel=1
pitch_keycenter=e3
sample=3Trombones_muted_sustain_FF_E3.opus
</region>

<region>
hivel=127
key=e2
loop_end=206637
loop_mode=loop_continuous
loop_start=62597
loop_xfade=36010
lovel=1
sample=3Trombones_muted_sustain_FF_E2.opus
</region>

<region>
hikey=d4
hivel=127
lokey=c#4
loop_end=209268
loop_mode=loop_continuous
loop_start=63394
loop_xfade=36468
lovel=1
pitch_keycenter=d4
sample=3Trombones_muted_sustain_FF_D4.opus
</region>

<region>
hikey=d3
hivel=127
lokey=c#3
loop_end=209627
loop_mode=loop_continuous
loop_start=63503
loop_xfade=36531
lovel=1
pitch_keycenter=d3
sample=3Trombones_muted_sustain_FF_D3.opus
</region>

<region>
hikey=c4
hivel=127
lokey=b3
loop_end=208886
loop_mode=loop_continuous
loop_start=63278
loop_xfade=36402
lovel=1
pitch_keycenter=c4
sample=3Trombones_muted_sustain_FF_C4.opus
</region>

<region>
hikey=c3
hivel=127
lokey=b2
loop_end=210224
loop_mode=loop_continuous
loop_start=63684
loop_xfade=36635
lovel=1
pitch_keycenter=c3
sample=3Trombones_muted_sustain_FF_C3.opus
</region>

<region>
hikey=a#4
hivel=127
lokey=a4
loop_end=206769
loop_mode=loop_continuous
loop_start=62637
loop_xfade=36033
lovel=1
pitch_keycenter=A#4
sample=3Trombones_muted_sustain_FF_A#4.opus
</region>

<region>
hikey=a#3
hivel=127
lokey=a3
loop_end=208602
loop_mode=loop_continuous
loop_start=63192
loop_xfade=36352
lovel=1
pitch_keycenter=a#3
sample=3Trombones_muted_sustain_FF_A#3.opus
</region>

<region>
hikey=a#2
hivel=127
lokey=a2
loop_end=208194
loop_mode=loop_continuous
loop_start=63069
loop_xfade=36281
lovel=1
pitch_keycenter=a#2
sample=3Trombones_muted_sustain_FF_A#2.opus
</region>
</group>